<?xml version="1.0" standalone="no"?><!DOCTYPE svg PUBLIC "-//W3C//DTD SVG 1.1//EN" "http://www.w3.org/Graphics/SVG/1.1/DTD/svg11.dtd">
<svg t="1665713624838" class="icon" viewBox="0 0 1024 1024" version="1.1" xmlns="http://www.w3.org/2000/svg" p-id="8604" width="200" height="200"><path d="M804.947084 418.503859l-115.563865-10.122809c-24.80966-2.164994-96.049663 3.803368-118.489533-13.01922-3.276748-17.290695 14.686851-46.576626 20.187106-60.970911 15.886374-41.661505 31.187615-82.854903 47.103246-125.043027L706.235064 27.634685c8.981799-23.697907-21.737709-37.009694-36.570844-19.689742l-468.106796 536.918495c-10.620173 12.346317 0.936214 31.977546 15.710835 33.264839l169.396146 14.803877c11.6149 1.023984 57.109029-2.428304 63.516241 9.274366 6.085388 9.596189-9.566933 36.395303-13.077733 46.19629-41.251911 106.962403-81.450583 214.012576-121.678511 321.062748-8.981799 23.66865 21.766966 36.980437 36.570844 19.689742l467.580176-536.947751c11.234563-12.872937 0.17554-32.416396-14.628338-33.70369z" p-id="8605" fill="#e98f36"></path></svg>
