<?xml version="1.0" standalone="no"?><!DOCTYPE svg PUBLIC "-//W3C//DTD SVG 1.1//EN" "http://www.w3.org/Graphics/SVG/1.1/DTD/svg11.dtd">
<svg t="1665713524786" class="icon" viewBox="0 0 1024 1024" version="1.1" xmlns="http://www.w3.org/2000/svg" p-id="5770" width="200" height="200"><path d="M602.1 1008.1c-9.5 0-18.5-3.3-26.4-9.4-10.8-8.3-16.1-21.4-16.1-35.1 0-6.7 0.1-13.6 0.3-20.8 0.9-40.5 1.7-82.3-26-130.9-18.8-32.8-32.1-66-41.5-95.3C458 772 426 855.9 464.7 946.2c6.4 14.9 4.1 32.1-6 44.8-10.1 12.7-26.4 18.8-42.3 16-154-27.8-290.5-139.1-331.8-270.8-50.9-162-7.4-330.1 110.9-428.1 18.3-15.1 45.3-13.1 61.1 4.6l45.7 51.4c34.5-45.5 73.6-138.3-4.8-283.2-8.7-16.1-6.6-35.9 5.4-49.7 11.9-13.8 31.2-18.9 48.4-12.7 193.1 69.7 278.4 206.8 313.4 308.8 11.8-27.1 22.7-60.5 28.9-100.1 2.3-14.9 12.1-27.6 25.9-33.6 13.8-6 29.8-4.5 42.3 3.9 35.7 24.2 307.1 315.9 150.4 598.8-64.1 115.8-169.4 190.4-296.4 210l-2.9 0.5c-3.7 0.8-7.3 1.3-10.8 1.3z m-87-434.2c5.2 0 10.4 0.9 15.4 2.8 15.7 5.9 26.7 20.1 28.4 36.8 0.1 0.7 8.9 80.2 51.5 154.7 30.1 52.7 36.7 100.7 37.8 140.5 79.5-24 143.5-77 186.8-155.2 90.6-163.6-7.1-341.6-74.6-429.7-29.9 89.2-75.6 139.1-86.5 150.1-6.5 6.6-15 11.3-24.6 12.8-19.1 3.1-37.8-6.8-46.4-24.1-3.3-6.7-4.8-14.1-4.4-21.3-0.2-7-8.6-181.9-179-291.9 49.7 192.5-74.2 300.3-90.9 313.7-18.3 14.7-45 12.5-60.6-5l-46.5-52.3c-65.9 76.9-87.3 193.7-52.7 304 25.1 80.1 101.1 152.7 192.5 189.7-22.9-173.7 117-307.3 123.8-313.7 8.2-7.7 19-11.9 30-11.9z" p-id="5771" fill="#d81e06"></path></svg>
