<?xml version="1.0" standalone="no"?><!DOCTYPE svg PUBLIC "-//W3C//DTD SVG 1.1//EN" "http://www.w3.org/Graphics/SVG/1.1/DTD/svg11.dtd"><svg t="1694756324250" class="icon" viewBox="0 0 1024 1024" version="1.1" xmlns="http://www.w3.org/2000/svg" p-id="10141" xmlns:xlink="http://www.w3.org/1999/xlink" width="128" height="128"><path d="M902.4 825.6h-96V518.4c0-153.6-121.6-275.2-275.2-275.2S249.6 364.8 249.6 518.4v307.2H153.6c-6.4 0-12.8 6.4-12.8 12.8v57.6c0 6.4 6.4 12.8 12.8 12.8h748.8c6.4 0 12.8-6.4 12.8-12.8v-57.6c0-6.4-6.4-12.8-12.8-12.8z" fill="#FE6D68" p-id="10142"></path><path d="M486.4 76.8h83.2v108.8H486.4V76.8zM268.8 160l70.4-38.4 57.6 96L320 256l-51.2-96zM121.6 332.8l44.8-70.4L256 320l-38.4 70.4-96-57.6zM793.6 320l96-57.6 38.4 70.4-96 57.6-38.4-70.4zM652.8 211.2l57.6-96 70.4 38.4-51.2 102.4-76.8-44.8zM633.6 505.6H544l19.2-115.2c0-6.4 0-6.4-6.4-6.4h-6.4L409.6 550.4v12.8h96l-19.2 115.2c0 6.4 0 6.4 6.4 6.4h6.4L640 518.4s0-6.4-6.4-12.8c6.4 0 0 0 0 0z" fill="#F9D65D" p-id="10143"></path></svg>