<?xml version="1.0" standalone="no"?><!DOCTYPE svg PUBLIC "-//W3C//DTD SVG 1.1//EN" "http://www.w3.org/Graphics/SVG/1.1/DTD/svg11.dtd"><svg t="1694756228140" class="icon" viewBox="0 0 1024 1024" version="1.1" xmlns="http://www.w3.org/2000/svg" p-id="9079" xmlns:xlink="http://www.w3.org/1999/xlink" width="128" height="128"><path d="M661.3 817.1h-384c-142.4 0-224-81.6-224-224V362.7c0-142.4 81.6-224 224-224h115.2a32.8 32.8 0 0 1 26 13.3 31.8 31.8 0 0 1 4.3 29 128.9 128.9 0 0 0-6.8 43.1v166.4a107.3 107.3 0 0 0 28.6 78.1 107.3 107.3 0 0 0 78.1 28.6 32 32 0 0 1 32 32v51.2l116.5-78.1a32.6 32.6 0 0 1 17.9-5.5H800a128.4 128.4 0 0 0 43.1-6.8 31.3 31.3 0 0 1 10.2-1.7 32.5 32.5 0 0 1 18.7 6 31.6 31.6 0 0 1 13.3 26v72.5c-0.1 142.6-81.7 224.4-224.1 224.4z m-384-614.4c-107.6 0-160 52.4-160 160v230.4c0 107.7 52.3 160 160 160h384c107.7 0 160-52.4 160-160v-33.3a175.1 175.1 0 0 1-21.3 1.3H698.9l-115.2 76.8a62 62 0 0 1-33.3 9.8 58.2 58.2 0 0 1-28.2-7.3 58.9 58.9 0 0 1-31.1-52.1v-29.9a165 165 0 0 1-91.3-44.8 172 172 0 0 1-47.4-123.3V223.9c0-7.1 0.4-14.2 0.9-21.3z" fill="#DD9222" p-id="9080"></path><path d="M550.4 647.7a62.3 62.3 0 0 1-28.6-7.3 58.9 58.9 0 0 1-31.1-52.1v-29.9a165.5 165.5 0 0 1-91.3-44.8A172 172 0 0 1 352 390.4V224a192.8 192.8 0 0 1 10.2-63.6A161.7 161.7 0 0 1 522.6 53.3h277.3A163.3 163.3 0 0 1 970.6 224v166.4a161.7 161.7 0 0 1-106.7 160.4 202.6 202.6 0 0 1-64 10.2H698.8l-115.2 76.8a59.5 59.5 0 0 1-33.3 9.9z m-27.7-530.8v0.4a98.5 98.5 0 0 0-99.8 64 135 135 0 0 0-6.8 42.7v166.4a107.3 107.3 0 0 0 28.6 78.1 107.3 107.3 0 0 0 78.1 28.6 32 32 0 0 1 32 32v51.2l116.5-78.1a32.6 32.6 0 0 1 17.9-5.5h110.9a129.2 129.2 0 0 0 43.1-6.8 98.5 98.5 0 0 0 63.5-99.9V223.6A98.9 98.9 0 0 0 800 116.9z m-207 853.8a32.2 32.2 0 0 1-32-32 32.2 32.2 0 0 1 32-32h307.2a32.2 32.2 0 0 1 32 32 32.2 32.2 0 0 1-32 32z" fill="#DD9222" p-id="9081"></path><path d="M437.3 938.7V785.1a32.2 32.2 0 0 1 32-32 32.2 32.2 0 0 1 32 32v153.6a32.2 32.2 0 0 1-32 32 32.2 32.2 0 0 1-32-32z m189.4-629.4a32.2 32.2 0 0 1 32-32 32.2 32.2 0 0 1 32 32 32 32 0 0 1-64 0z m120 0a32.2 32.2 0 0 1 32-32 32.2 32.2 0 0 1 32 32 32 32 0 0 1-64 0z m-240.2 0a32.2 32.2 0 0 1 32-32 32 32 0 1 1-32 32z" fill="#DD9222" p-id="9082"></path></svg>