<?xml version="1.0" standalone="no"?><!DOCTYPE svg PUBLIC "-//W3C//DTD SVG 1.1//EN" "http://www.w3.org/Graphics/SVG/1.1/DTD/svg11.dtd"><svg t="1694755258187" class="icon" viewBox="0 0 1024 1024" version="1.1" xmlns="http://www.w3.org/2000/svg" p-id="4004" xmlns:xlink="http://www.w3.org/1999/xlink" width="128" height="128"><path d="M141.420471 344.172203c105.682823 43.452708 264.603575 108.261402 271.503707 111.075946 13.434154 5.691119 28.358289 28.936037 28.366803 53.323071v375.562755c0 8.739194-5.981817 13.3928-10.300937 13.392799-0.976698 0-1.983803-0.220152-3.077267-0.671403-109.945993-45.430429-258.417418-108.077739-259.90375-108.705356l-0.097305-0.041355-0.097304-0.040138c-14.307465-5.958707-26.395163-30.38223-26.395164-53.332801V344.172203m-44.819841-66.987108v457.551842c0 35.879956 18.562121 79.955415 53.982311 94.70805 0 0 148.833886 62.811512 260.215126 108.834285 6.717685 2.775622 13.542406 4.06856 20.193194 4.06856 29.181732 0 55.121995-24.845583 55.121994-58.215074V508.570003c-0.015812-40.694114-24.115797-81.425935-56.051256-94.739674 0 0.001216-244.978399-99.887102-333.461369-136.645234zM879.252919 344.172203v390.563518c0 22.949354-12.087698 47.372878-26.395163 53.332801l-0.097305 0.040138-0.096089 0.041355c-1.487548 0.627616-149.957757 63.27371-259.904966 108.705356-1.093464 0.451251-2.099353 0.671404-3.07605 0.671403-4.31912 0-10.300937-4.654822-10.300937-13.392799V508.587032c0.00973-24.402846 14.933865-47.64898 28.366803-53.3401 6.900132-2.813327 165.820884-67.623238 271.503707-111.074729m44.821057-66.987108c-88.48297 36.758132-333.461369 136.64645-333.461369 136.646451-31.93546 13.313739-56.03666 54.045559-56.051256 94.739674v375.562755c0 33.367057 25.942696 58.215073 55.121995 58.215073 6.653221 0 13.473076-1.291722 20.193194-4.06856 111.38124-46.023989 260.215125-108.834285 260.215125-108.834285 35.42019-14.752635 53.983528-58.828094 53.983528-94.70805V277.185095h-0.001217zM510.337303 125.795741c17.854228 0 35.335049 2.733051 46.761073 7.311244l246.458649 98.742554-246.458649 98.742553c-11.427241 4.578194-28.908062 7.311245-46.761073 7.311245s-35.333832-2.733051-46.761073-7.311245L217.116364 231.849539l246.458649-98.742554c11.427241-4.578194 28.908062-7.311245 46.76229-7.311244m0-44.821058c-22.957869 0-45.914521 3.509057-63.430614 10.525955L96.599413 231.849539l350.306059 140.3489c17.516094 7.018114 40.473962 10.527171 63.430615 10.527171 22.957869 0 45.914521-3.509057 63.430614-10.527171l350.306059-140.3489L573.767917 91.500638c-17.516094-7.018114-40.473962-10.525955-63.430614-10.525955z" fill="#1296db" p-id="4005"></path></svg>