<?xml version="1.0" standalone="no"?><!DOCTYPE svg PUBLIC "-//W3C//DTD SVG 1.1//EN" "http://www.w3.org/Graphics/SVG/1.1/DTD/svg11.dtd"><svg t="1694756089333" class="icon" viewBox="0 0 1024 1024" version="1.1" xmlns="http://www.w3.org/2000/svg" p-id="7117" xmlns:xlink="http://www.w3.org/1999/xlink" width="128" height="128"><path d="M277.333333 789.333333H213.333333c-25.6 0-42.666667-17.066667-42.666666-42.666666s17.066667-42.666667 42.666666-42.666667h64c25.6 0 42.666667 17.066667 42.666667 42.666667s-17.066667 42.666667-42.666667 42.666666zM512 789.333333h-64c-25.6 0-42.666667-17.066667-42.666667-42.666666s17.066667-42.666667 42.666667-42.666667H512c25.6 0 42.666667 17.066667 42.666667 42.666667s-17.066667 42.666667-42.666667 42.666666z" p-id="7118" fill="#1aaba8"></path><path d="M917.333333 1024h-810.666666C46.933333 1024 0 977.066667 0 917.333333v-341.333333C0 516.266667 46.933333 469.333333 106.666667 469.333333H384l93.866667-110.933333c17.066667-21.333333 51.2-21.333333 64 0L640 469.333333h277.333333c59.733333 0 106.666667 46.933333 106.666667 106.666667v341.333333c0 59.733333-46.933333 106.666667-106.666667 106.666667z m-810.666666-469.333333c-12.8 0-21.333333 8.533333-21.333334 21.333333v341.333333c0 12.8 8.533333 21.333333 21.333334 21.333334h810.666666c12.8 0 21.333333-8.533333 21.333334-21.333334v-341.333333c0-12.8-8.533333-21.333333-21.333334-21.333333h-298.666666c-12.8 0-25.6-4.266667-34.133334-17.066667l-72.533333-85.333333-72.533333 89.6c-8.533333 8.533333-21.333333 12.8-34.133334 12.8h-298.666666zM170.666667 213.333333c-12.8 0-21.333333-4.266667-29.866667-12.8-17.066667-17.066667-12.8-42.666667 4.266667-59.733333C349.866667-42.666667 682.666667-42.666667 883.2 140.8c17.066667 17.066667 17.066667 42.666667 4.266667 59.733333-17.066667 17.066667-42.666667 17.066667-59.733334 4.266667-170.666667-157.866667-452.266667-157.866667-627.2 0-8.533333 4.266667-21.333333 8.533333-29.866666 8.533333z" p-id="7119" fill="#1aaba8"></path><path d="M298.666667 341.333333c-12.8 0-21.333333-4.266667-29.866667-12.8-17.066667-17.066667-17.066667-42.666667 0-59.733333 132.266667-128 354.133333-128 486.4 0 17.066667 17.066667 17.066667 42.666667 0 59.733333-17.066667 17.066667-42.666667 17.066667-59.733333 0-102.4-98.133333-264.533333-98.133333-366.933334 0-8.533333 8.533333-21.333333 12.8-29.866666 12.8z" p-id="7120" fill="#1aaba8"></path></svg>