<?xml version="1.0" standalone="no"?><!DOCTYPE svg PUBLIC "-//W3C//DTD SVG 1.1//EN" "http://www.w3.org/Graphics/SVG/1.1/DTD/svg11.dtd">
<svg t="1665713857125" class="icon" viewBox="0 0 1024 1024" version="1.1" xmlns="http://www.w3.org/2000/svg" p-id="9925" width="200" height="200"><path d="M800 894.1H224c-16.9 0-30.5-13.7-30.5-30.5v-47.2h-41.6c-16.9 0-30.5-13.7-30.5-30.5V229.7c0-16.9 13.7-30.5 30.5-30.5h41.6V129c0-16.9 13.7-30.5 30.5-30.5h576c16.9 0 30.5 13.7 30.5 30.5v70.2h55.9c16.9 0 30.5 13.7 30.5 30.5v556.1c0 16.9-13.7 30.5-30.5 30.5h-55.9v47.2c0.1 16.9-13.6 30.6-30.5 30.6z m-545.5-61h515v-47.2c0-16.9 13.7-30.5 30.5-30.5h55.9V260.3H800c-16.9 0-30.5-13.7-30.5-30.5v-70.2h-515v70.2c0 16.9-13.7 30.5-30.5 30.5h-41.6v495.1H224c16.9 0 30.5 13.7 30.5 30.5v47.2z" fill="#7dc5eb" p-id="9926"></path><path d="M224 822c-7.8 0-15.6-3-21.6-8.9-11.9-11.9-11.9-31.2 0-43.2l576.1-576.1c11.9-11.9 31.2-11.9 43.2 0 11.9 11.9 11.9 31.2 0 43.2L245.6 813.1c-6 5.9-13.8 8.9-21.6 8.9z" fill="#7dc5eb" p-id="9927"></path><path d="M224 967.6H72.7c-16.9 0-30.5-13.7-30.5-30.5V785.8c0-16.9 13.7-30.5 30.5-30.5H224c16.9 0 30.5 13.7 30.5 30.5V937c0 17-13.7 30.6-30.5 30.6z m-120.7-61h90.2v-90.2h-90.2v90.2zM447.2 893.2c-7.8 0-15.6-3-21.6-8.9-11.9-11.9-11.9-31.2 0-43.2L853 413.8c11.9-11.9 31.2-11.9 43.2 0 11.9 11.9 11.9 31.2 0 43.2L468.8 884.3c-6 5.9-13.8 8.9-21.6 8.9zM155.1 566.2c-7.8 0-15.6-3-21.6-8.9-11.9-11.9-11.9-31.2 0-43.2l383.7-383.7c11.9-11.9 31.2-11.9 43.2 0 11.9 11.9 11.9 31.2 0 43.2L176.6 557.2c-5.9 6-13.7 9-21.5 9zM224 260.3H72.7c-16.9 0-30.5-13.7-30.5-30.5V78.5C42.2 61.6 55.9 48 72.7 48H224c16.9 0 30.5 13.7 30.5 30.5v151.2c0 16.9-13.7 30.6-30.5 30.6z m-120.7-61.1h90.2V109h-90.2v90.2zM951.3 260.3H800c-16.9 0-30.5-13.7-30.5-30.5V78.5c0-16.9 13.7-30.5 30.5-30.5h151.2c16.9 0 30.5 13.7 30.5 30.5v151.2c0.1 16.9-13.6 30.6-30.4 30.6z m-120.7-61.1h90.2V109h-90.2v90.2zM951.3 967.6H800c-16.9 0-30.5-13.7-30.5-30.5V785.8c0-16.9 13.7-30.5 30.5-30.5h151.2c16.9 0 30.5 13.7 30.5 30.5V937c0.1 17-13.6 30.6-30.4 30.6z m-120.7-61h90.2v-90.2h-90.2v90.2z" fill="#7dc5eb" p-id="9928"></path></svg>
