<?xml version="1.0" encoding="UTF-8"?>
<svg width="22px" height="20px" viewBox="0 0 22 20" version="1.1" xmlns="http://www.w3.org/2000/svg" xmlns:xlink="http://www.w3.org/1999/xlink">
    <title>日出-亮/暗</title>
    <g id="页面-1" stroke="none" stroke-width="1" fill="none" fill-rule="evenodd">
        <g id="管理系统-亮--风力+日出-效果" transform="translate(-972.000000, -211.000000)" fill-rule="nonzero">
            <g id="形状" transform="translate(972.000000, 211.000000)">
                <path d="M21.0489583,18.0898438 L0.916666667,18.0898438 C0.4125,18.0898438 0,18.546875 0,19.0273438 C0,19.578125 0.4125,20 0.916666667,20 L21.0489583,20 C21.5875,20 22,19.578125 22,19.0273438 C22,18.546875 21.5875,18.0898438 21.0489583,18.0898438 Z M8.67395833,4.7265625 L9.77777778,3.85078125 L9.77777778,7.5 C9.77777778,8.19101563 10.3251042,8.75 11,8.75 C11.6748958,8.75 12.2222222,8.19101563 12.2222222,7.5 L12.2222222,3.85078125 L13.2916667,4.7265625 C13.8176042,5.15742188 14.5872222,5.06835938 15.0092708,4.53125 C15.4313194,3.99179688 15.3458403,3.20546875 14.8182986,2.7734375 L11.7627431,0.2734375 C11.7070174,0.228046875 11.6418194,0.205234375 11.5809375,0.171054688 C11.5325833,0.143664063 11.4898438,0.11109375 11.4377847,0.0905078125 C11.2979167,0.0346367188 11.1489583,0 11,0 C10.8510417,0 10.7020833,0.0346367188 10.5607639,0.09046875 C10.5111111,0.11109375 10.4652778,0.143671875 10.4194444,0.171054688 C10.3583333,0.205234375 10.2934028,0.228046875 10.2361111,0.2734375 L7.18055556,2.7734375 C6.65347222,3.20546875 6.53506944,3.9921875 6.98958333,4.53125 C7.40972222,5.0703125 8.18125,5.15625 8.67395833,4.7265625 Z" fill="#2C79FF"></path>
                <path d="M10.9159722,15 C9.56274306,15 8.39628472,15.7582031 7.76416667,16.8753906 L14.06625,16.8753906 C13.4368056,15.7578125 12.271875,15 10.9159722,15 Z M20.2163194,14.2695313 L16.053125,13.5 L15.3006944,9.23828125 C15.2252604,8.81132813 14.7434375,8.60703125 14.3947222,8.85445313 L10.9186458,11.3216406 L7.44256944,8.85445313 C7.09270833,8.609375 6.61145833,8.8125 6.53506944,9.23828125 L5.78263889,13.4960938 L1.6190625,14.2695313 C1.20159722,14.3467578 1.00184028,14.8398438 1.24376389,15.1960938 L2.38386806,16.8765625 L6.41338194,16.8765625 C7.13869444,15.0488281 8.86890278,13.7511719 10.9165069,13.7511719 C12.9641111,13.7511719 14.6939375,15.0492188 15.4196319,16.8765625 L19.4491458,16.8765625 L20.58925,15.1960938 C20.83125,14.8398438 20.6326389,14.3476563 20.2163194,14.2695313 Z" fill="#F46C6C" opacity="0.999977766"></path>
            </g>
        </g>
    </g>
</svg>