<?xml version="1.0" standalone="no"?>
<!DOCTYPE svg PUBLIC "-//W3C//DTD SVG 1.1//EN" "http://www.w3.org/Graphics/SVG/1.1/DTD/svg11.dtd">
<svg t="1665713375353" class="icon" viewBox="0 0 1024 1024" version="1.1" xmlns="http://www.w3.org/2000/svg" p-id="5363" width="200" height="200"><path d="M512 921.6c-150.826667 0-273.066667-128.384-273.066667-286.72 0-105.557333 91.008-283.050667 273.066667-532.48 182.058667 249.429333 273.066667 426.922667 273.066667 532.48 0 158.336-122.24 286.72-273.066667 286.72z m-214.570667-286.72c0 124.416 96.085333 225.28 214.570667 225.28a20.010667 20.010667 0 0 0 19.498667-20.48 20.010667 20.010667 0 0 0-19.498667-20.48c-96.938667 0-175.530667-82.517333-175.530667-184.32a20.693333 20.693333 0 0 0-9.770666-17.749333 18.688 18.688 0 0 0-19.498667 0 20.693333 20.693333 0 0 0-9.770667 17.749333z" fill="#0095FF" p-id="5364"></path></svg>
