<?xml version="1.0" standalone="no"?>
<!DOCTYPE svg PUBLIC "-//W3C//DTD SVG 1.1//EN" "http://www.w3.org/Graphics/SVG/1.1/DTD/svg11.dtd">
<svg width="17px" height="22px" viewBox="0 0 17 22" version="1.1" xmlns="http://www.w3.org/2000/svg" xmlns:xlink="http://www.w3.org/1999/xlink">
    <title>风力-亮/暗</title>
    <g id="页面-1" stroke="none" stroke-width="1" fill="none" fill-rule="evenodd">
        <g id="管理系统-亮--风力+日出-效果" transform="translate(-802.000000, -209.000000)" fill-rule="nonzero">
            <g id="编组" transform="translate(802.000000, 209.000000)">
                <path d="M16.952323,18.2968774 L13.1958104,10.4636051 C12.9437605,9.87922497 12.9325781,9.25617259 13.1647506,8.62495608 L16.2805089,0.929184978 C16.417291,0.580662368 16.24862,0.186248728 15.9037521,0.047888131 C15.617815,-0.0667535066 15.2914852,0.0295918756 15.1112066,0.281769103 L10.2599055,7.01318403 C9.89033439,7.52967297 9.33215105,7.87600415 8.70925451,7.97569253 L0.566529766,9.27765716 C0.234927707,9.33351702 -0.00684119003,9.62570711 0.000147709428,9.96516323 C0.00794250478,10.3059084 0.264512104,10.5963797 0.599813275,10.6329035 L8.66557947,11.5150597 C9.29272787,11.5835525 9.86715328,11.8631097 10.2613001,12.3993644 L15.8014653,18.9951258 C16.0124848,19.2610617 16.38567,19.3277928 16.6743708,19.1510608 C16.9268119,18.9757897 17.0841305,18.6062552 16.952323,18.2968774 Z M10.8466613,10.6569662 C10.2828655,10.6569662 9.82621644,10.1954778 9.82621644,9.66437932 C9.82621644,9.09460866 10.2828655,8.67179243 10.8466613,8.67179243 C11.4100319,8.67179243 11.8288395,9.13328088 11.8288395,9.66437932 C11.8671061,10.1971965 11.4504245,10.6569662 10.8466613,10.6569662 Z" id="形状" fill="#2C79FF"></path>
                <path d="M16.2932857,21.5023745 C16.31696,21.5500273 16.329265,21.6027074 16.329265,21.6561181 C16.3294307,21.8459557 16.1771336,22 15.9892441,22 L5.74443702,22 C5.69235182,21.9996648 5.6406918,21.9871522 5.59409148,21.9636567 C5.42605823,21.8786208 5.35802857,21.6721971 5.44217275,21.502598 C5.70799864,20.9654838 6.2508753,20.6260277 6.84528443,20.6251683 L8.90020525,20.6251683 L9.43934028,11.7649338 C9.77519419,11.9202586 10.0473128,12.1308074 10.2641574,12.4015129 L12.4934042,15.055716 L12.8326596,20.6245152 L14.8875804,20.6245152 C15.4811817,20.5871321 16.0254189,20.9652604 16.2932857,21.5023745 Z" id="路径" fill="#999999"></path>
            </g>
        </g>
    </g>
</svg>
