<svg t="1668813278280" class="icon" viewBox="0 0 1024 1024" version="1.1" xmlns="http://www.w3.org/2000/svg" p-id="10250" width="200" height="200"><path d="M504.3712 513.1264m-450.816 0a450.816 450.816 0 1 0 901.632 0 450.816 450.816 0 1 0-901.632 0Z" fill="#E9F4FF" p-id="10251"></path><path d="M665.6512 688.2816h89.1392c-55.4496 77.5168-108.8 152.064-162.1504 226.6112l-3.84-1.3824c11.6224-48.9472 23.296-97.8944 35.4304-148.9408H554.496c7.936-36.1472 15.36-70.0928 23.5008-107.2128-19.8144 5.9904-37.12 9.4208-52.9408 16.2816-34.1504 14.8992-64.8704 8.5504-92.6208-13.4656-18.3296-14.592-36.3008-30.4128-51.2-48.3328-15.5648-18.7392-10.7008-29.3888 13.0048-33.4336 50.2272-8.448 100.608-15.9232 151.0912-25.2928-10.5472 0-21.0944 0.1024-31.6928 0-43.4176-0.4096-86.8864-1.1264-130.304-1.28-26.6752-0.1024-45.4656-13.9264-61.5424-33.2288-20.7872-24.9344-34.5088-53.4016-42.24-84.7872-4.9152-19.8656 0.512-25.344 21.0432-20.5824 51.8656 12.0832 103.68 24.576 155.5456 36.7104 26.5216 6.1952 53.1456 11.9808 80.4352 15.4112-31.488-10.3936-63.2832-19.9168-94.3616-31.4368-47.36-17.5616-94.1056-36.6592-141.312-54.6816-14.336-5.4784-23.7568-15.0016-29.7984-28.7744-18.432-42.0352-32.2048-85.2992-32.5632-131.7376-0.1024-16.9472 5.5296-21.0432 20.0704-14.0288 148.1216 71.6288 300.9024 131.9424 454.3488 190.8224 14.7456 5.632 28.7232 13.9776 41.9328 22.7328 25.4976 16.9472 33.792 38.3488 20.5824 65.1776-27.0848 55.1424-56.8832 108.9024-85.8112 163.1232-7.0656 13.4656-15.104 26.368-24.0128 41.728z" fill="#2595E8" p-id="10252"></path><path d="M708.096 393.6256c-151.808-58.3168-302.9504-118.0672-449.4336-188.928-14.5408-7.0144-20.1728-2.9184-20.0704 14.0288 0.3584 46.4384 14.1312 89.6512 32.5632 131.7376 6.0416 13.7728 15.4624 23.296 29.7984 28.7744 47.2064 18.0224 93.952 37.1712 141.312 54.6816 31.0784 11.52 62.8736 21.0432 94.3616 31.4368-27.2896-3.4304-53.9136-9.216-80.4352-15.4112-51.8656-12.1344-103.68-24.6272-155.5456-36.7104-20.5312-4.7616-25.9584 0.7168-21.0432 20.5824 7.7824 31.3856 21.4528 59.8528 42.24 84.7872 16.0768 19.3024 34.8672 33.1264 61.5424 33.2288 43.4176 0.1536 86.8864 0.8704 130.304 1.28 10.5472 0.1024 21.0944 0 31.6928 0-50.4832 9.3696-100.864 16.7936-151.0912 25.2928-23.7568 3.9936-28.5696 14.6944-13.0048 33.4336 14.8992 17.92 32.8704 33.792 51.2 48.3328 27.6992 22.016 58.4192 28.3648 92.6208 13.4656 15.8208-6.8608 33.1264-10.3424 52.9408-16.2816l-11.776 53.6576c85.4528-79.4112 139.52-192.0512 141.824-317.3888z" fill="#3A9CED" p-id="10253"></path><path d="M300.9536 379.1872c47.2064 18.0224 93.952 37.1712 141.312 54.6816 25.856 9.5744 52.2752 17.8176 78.5408 26.3168a442.70592 442.70592 0 0 0 51.2512-119.6544C466.2272 298.496 361.3184 254.3104 258.6624 204.6976c-14.5408-7.0144-20.1728-2.9184-20.0704 14.0288 0.3584 46.4384 14.1312 89.6512 32.5632 131.7376 6.0416 13.7216 15.4624 23.2448 29.7984 28.7232zM456.192 449.9456c-51.8656-12.1344-103.68-24.6272-155.5456-36.7104-20.5312-4.7616-25.9584 0.7168-21.0432 20.5824 7.7824 31.3856 21.4528 59.8528 42.24 84.7872 16.0768 19.3024 34.8672 33.1264 61.5424 33.2288 20.6336 0.0512 41.3184 0.256 61.952 0.512a448.11264 448.11264 0 0 0 73.8304-89.5488c-21.248-3.4304-42.1376-7.9872-62.976-12.8512zM394.2912 578.4576c-20.7872 3.4816-27.0848 12.1344-17.8688 26.7776a439.0912 439.0912 0 0 0 43.776-31.0784c-8.6528 1.4336-17.3056 2.816-25.9072 4.3008z" fill="#59ADF8" p-id="10254"></path><path d="M300.9536 379.1872c11.6736 4.4544 23.296 8.96 34.8672 13.5168a446.39232 446.39232 0 0 0 86.7328-113.664c-55.1424-23.6032-109.824-48.2304-163.8912-74.3936-14.5408-7.0144-20.1728-2.9184-20.0704 14.0288 0.3584 46.4384 14.1312 89.6512 32.5632 131.7376 6.0416 13.7728 15.4624 23.296 29.7984 28.7744zM300.6464 413.2352c-20.5312-4.7616-25.9584 0.7168-21.0432 20.5824 0.3072 1.2288 0.6656 2.3552 0.9728 3.584 10.1376-6.912 19.9168-14.2336 29.44-21.9648-3.1232-0.7168-6.2464-1.4848-9.3696-2.2016z" fill="#6BC2FC" p-id="10255"></path></svg>
