<svg t="1668813162799" class="icon" viewBox="0 0 1024 1024" version="1.1" xmlns="http://www.w3.org/2000/svg" p-id="9813" width="200" height="200"><path d="M512 512m-512 0a512 512 0 1 0 1024 0 512 512 0 1 0-1024 0Z" fill="#B3DFFF" p-id="9814"></path><path d="M460.334545 509.44a75.869091 75.869091 0 0 0 103.563637 0l266.705454-250.181818A46.545455 46.545455 0 0 0 814.545455 256H209.454545a46.545455 46.545455 0 0 0-16.756363 3.258182zM857.134545 739.374545A46.545455 46.545455 0 0 0 861.090909 721.454545V302.545455a46.545455 46.545455 0 0 0-4.654545-20.247273l-235.287273 221.090909z" fill="#439DFF" p-id="9815"></path><path d="M595.781818 527.36l-8.145454 7.68a110.778182 110.778182 0 0 1-151.272728 0l-8.145454-7.68L191.534545 764.043636A46.545455 46.545455 0 0 0 209.454545 768h605.09091a46.545455 46.545455 0 0 0 18.618181-3.956364zM167.563636 282.996364A46.545455 46.545455 0 0 0 162.909091 302.545455v418.90909a46.545455 46.545455 0 0 0 3.956364 18.618182l235.985454-236.683636z" fill="#439DFF" p-id="9816"></path></svg>
