<svg t="1668813469164" class="icon" viewBox="0 0 1024 1024" version="1.1" xmlns="http://www.w3.org/2000/svg" p-id="16847" data-spm-anchor-id="a313x.7781069.0.i13" width="200" height="200"><path d="M458.4 509.1c0 21.2 17.2 38.4 38.4 38.4s38.4-17.2 38.4-38.4-17.2-38.4-38.4-38.4-38.4 17.1-38.4 38.4z m0 0M580 509.1c0 21.2 17.2 38.4 38.4 38.4s38.4-17.2 38.4-38.4-17.2-38.4-38.4-38.4-38.4 17.1-38.4 38.4z m0 0" fill="#39B54A" p-id="16848"></path><path d="M336.8 509.1c0 21.2 17.2 38.4 38.4 38.4s38.4-17.2 38.4-38.4-17.2-38.4-38.4-38.4-38.4 17.1-38.4 38.4z m0 0" fill="#39B54A" p-id="16849"></path><path d="M496.8 99.5c-226.2 0-409.6 183.4-409.6 409.6 0 226.2 183.4 409.6 409.6 409.6 226.2 0 409.6-183.4 409.6-409.6 0-226.3-183.4-409.6-409.6-409.6z m204.8 524.8c0 10.2-4 20-11.2 27.2-7.2 7.2-17 11.2-27.2 11.2h-99.3L524 702.6c-7.2 7.2-17 11.3-27.1 11.3-10.2 0-20-4-27.1-11.3l-39.9-39.9h-99.3c-10.2 0-20-4-27.2-11.2-7.2-7.2-11.2-17-11.2-27.2V393.9c0-10.2 4-20 11.2-27.2 7.2-7.2 17-11.2 27.2-11.2h332.8c10.2 0 20 4 27.2 11.2 7.2 7.2 11.2 17 11.2 27.2v230.4z m0 0" fill="#a4faa8" p-id="16850" data-spm-anchor-id="a313x.7781069.0.i6" class=""></path></svg>
