<svg t="1668813631575" class="icon" viewBox="0 0 1024 1024" version="1.1" xmlns="http://www.w3.org/2000/svg" p-id="26553" width="200" height="200"><path d="M512 0c282.7776 0 512 229.2224 512 512S794.7776 1024 512 1024 0 794.7776 0 512 229.2224 0 512 0" fill="#cba8f8" p-id="26554" data-spm-anchor-id="a313x.7781069.0.i16" class=""></path><path d="M729.6 460.8a25.6 25.6 0 0 1 25.6 25.6c0 125.696-95.3472 229.1072-217.6512 241.8688 0.0384 0.448 0.0512 0.896 0.0512 1.3312v64a25.6 25.6 0 1 1-51.2 0v-64l0.0512-1.3312C364.1472 715.52 268.8 612.096 268.8 486.4a25.6 25.6 0 1 1 51.2 0c0 106.0352 85.9648 192 192 192 106.0352 0 192-85.9648 192-192a25.6 25.6 0 0 1 25.6-25.6zM512 243.2c77.76 0 140.8 63.04 140.8 140.8v102.4c0 77.76-63.04 140.8-140.8 140.8s-140.8-63.04-140.8-140.8v-102.4c0-77.76 63.04-140.8 140.8-140.8z" fill="#FFFFFF" p-id="26555"></path></svg>
