<svg t="1668814031266" class="icon" viewBox="0 0 1024 1024" version="1.1" xmlns="http://www.w3.org/2000/svg" p-id="50195" width="200" height="200"><path d="M212.832841 812.770872a425.984 425.984 0 1 0 602.421835-602.442864 425.984 425.984 0 1 0-602.421835 602.442864Z" fill="#74cdfb" p-id="50196" data-spm-anchor-id="a313x.7781069.0.i36" class=""></path><path d="M258.1504 511.3856c0-141.2608 114.5856-255.9488 255.8464-256 141.4656-0.0512 256.0512 114.8928 256 256.6656-0.0512 143.2576-118.3744 257.1776-260.1984 255.5904-137.8304-1.536-251.648-116.1728-251.648-256.256z m369.0496-18.5344c-3.7888-21.504-7.424-42.24-11.0592-62.8736-29.0304 1.4848-56.1664 2.8672-83.456 4.2496v58.624h94.5152z m-94.6176 96.4608c3.4816 0.3072 6.656 0.7168 9.8816 0.8704 19.5072 0.9216 39.0656 1.6896 58.5728 2.7648 11.3152 0.6656 11.4688 0.9728 15.0528-9.984 5.632-17.0496 9.7792-34.4064 10.0864-52.5824h-93.5936v58.9312zM403.6096 492.6464h92.3136c0-18.4832-0.1024-36.2496 0.0512-54.016 0.0512-3.9936-1.6384-5.12-5.376-5.2736-23.2448-0.9728-46.4896-2.2016-69.7344-3.0208-1.8944-0.0512-5.2736 1.6896-5.5808 3.072-4.0448 19.456-7.7312 39.0144-11.6736 59.2384z m92.3136 37.6832h-91.136c0.9728 20.736 5.5296 40.1408 12.7488 58.9312 0.7168 1.792 3.84 3.84 5.7856 3.7888 22.528-0.7168 45.1072-1.7408 67.6352-3.072 1.7408-0.1024 4.7104-3.0208 4.7616-4.6592 0.3072-18.0736 0.2048-36.1472 0.2048-54.9888zM378.7776 426.496c-17.408-2.6624-34.4576-5.376-51.5072-7.6288-1.4848-0.2048-4.3008 2.304-4.9152 4.096-5.1712 14.592-10.3936 29.184-14.6944 44.0832-2.3552 8.192-2.8672 16.896-4.4032 26.3168 21.3504 0 41.1648 0.1536 60.928-0.256 1.6896-0.0512 4.4544-3.4304 4.8128-5.5808 1.536-9.1136 1.9968-18.432 3.4816-27.5968 1.7408-11.1104 4.096-22.0672 6.2976-33.4336z m-74.7008 103.7824c0.4096 19.8656 9.728 55.552 18.6368 71.0144 0.8704 1.536 3.3792 3.328 4.864 3.1232 17.5616-2.304 35.072-4.9664 52.224-7.4752-4.4032-22.272-8.7552-44.2368-13.1584-66.6624H304.0768z m420.3008-36.9664c-1.8432-23.4496-7.3728-44.3904-15.8208-64.6144-4.3008-10.2912-4.352-10.3424-15.616-8.7552-13.568 1.9456-27.0848 4.0448-39.68 5.9392 3.0208 21.7088 5.888 42.496 9.0624 63.2832 0.256 1.536 2.6624 3.8912 4.1472 3.9424 18.944 0.3072 37.9904 0.2048 57.9072 0.2048z m-73.1648 103.9872c15.9744 2.3552 32.5632 4.864 49.152 7.0656 1.536 0.2048 4.1984-1.4848 4.9152-2.9696 10.4448-22.3744 17.2032-45.824 18.9952-71.1168H664.576c-4.5056 22.7328-8.9088 44.7488-13.3632 67.0208z m-118.528-285.3376v85.76c22.8352-1.0752 45.1072-2.0992 68.7616-3.1744-16.4352-33.7408-38.0416-60.8768-68.7616-82.5856z m-37.4784 85.6064V314.2144c-28.9792 21.6576-50.1248 47.8208-65.4336 80.4352 22.7328 0.9728 43.9296 1.9456 65.4336 2.9184z m-150.2208 240.7936c29.44 37.632 64.9216 62.5152 109.056 74.9568-21.5552-24.1152-40.7552-49.664-56.0128-78.08-0.8192-1.4848-3.6352-2.9184-5.3248-2.7136-15.4112 1.6384-30.7712 3.6864-47.7184 5.8368z m234.0864 74.3424c41.8304-13.8752 76.0832-38.1952 103.68-74.1376-11.2128-1.6384-21.0944-3.1232-30.976-4.4544-16.5888-2.2016-16.5888-2.1504-25.0368 12.3392-1.28 2.1504-2.5088 4.352-3.9936 6.3488-14.3872 19.8144-28.8256 39.5776-43.6736 59.904z m-46.5408-7.7824c24.7296-23.2448 45.4144-47.2064 62.464-76.4928-21.8624-0.8704-41.984-1.7408-62.464-2.56v79.0528z m-96.5632-76.4928c16.64 28.0576 35.9424 51.5072 59.3408 73.216v-75.7248c-19.5072 0.8192-38.4512 1.6384-59.3408 2.5088z m2.9184-312.9344c-38.144 13.5168-68.864 36.5056-93.952 69.632 14.8992 1.8432 28.0576 3.2256 41.1648 5.1712 4.4032 0.6656 5.8368-1.2288 7.8336-4.6592 10.752-18.5856 21.76-37.0176 33.024-55.2448 3.2768-5.4272 7.8848-9.984 11.9296-14.8992z m244.3264 69.5808c-24.1664-31.5904-53.1456-54.1184-89.1392-69.0688 0.3584 1.5872 0.3584 2.2016 0.6144 2.5088 17.92 20.5824 32.4096 43.264 43.4176 68.2496 0.7168 1.6384 3.84 3.328 5.632 3.1744 12.5952-1.28 25.1904-3.0208 39.4752-4.864z" fill="#FFFFFF" p-id="50197"></path></svg>
