<?xml version="1.0" standalone="no"?><!DOCTYPE svg PUBLIC "-//W3C//DTD SVG 1.1//EN" "http://www.w3.org/Graphics/SVG/1.1/DTD/svg11.dtd"><svg t="1668172980656" class="icon" viewBox="0 0 1024 1024" version="1.1" xmlns="http://www.w3.org/2000/svg" p-id="2090" xmlns:xlink="http://www.w3.org/1999/xlink" width="200" height="200"><path d="M444.4 613.2c-1.6 0-3.4-0.2-5-0.4s-3.2-0.6-4.8-1-3.2-1-4.6-1.8c-1.4-0.8-3-1.6-4.4-2.4-1.4-1-2.6-2-4-3-1.2-1.2-2.4-2.4-3.4-3.6-1-1.2-2-2.6-2.8-4-0.8-1.4-1.6-3-2.2-4.4-0.6-1.6-1.2-3.2-1.6-4.8s-0.6-3.2-0.8-4.8c-0.2-1.6-0.2-3.4-0.2-5s0.2-3.2 0.6-5c0.4-1.6 0.8-3.2 1.4-4.8s1.2-3 2-4.6c0.8-1.4 1.6-2.8 2.6-4.2 1-1.4 2-2.6 3.2-3.8l333.2-333.2c-8.6-4.6-17.6-8.2-27.2-10.6-9.6-2.4-19.2-3.6-29-3.6h-506c-3.8 0-7.8 0.2-11.6 0.6-3.8 0.4-7.6 1-11.4 1.8-3.8 0.8-7.6 1.6-11.2 2.8-3.8 1.2-7.4 2.4-11 4-3.6 1.4-7 3.2-10.4 5-3.4 1.8-6.8 3.8-10 6s-6.4 4.4-9.4 7-5.8 5-8.6 7.8-5.4 5.6-7.8 8.6c-2.4 3-4.8 6-7 9.4-2.2 3.2-4.2 6.6-6 10-1.8 3.4-3.4 7-5 10.4-1.4 3.6-2.8 7.2-4 11-1.2 3.8-2 7.4-2.8 11.2-0.8 3.8-1.4 7.6-1.8 11.4s-0.6 7.8-0.6 11.6v506.2c0 3.8 0.2 7.8 0.6 11.6 0.4 3.8 1 7.6 1.8 11.4 0.8 3.8 1.6 7.6 2.8 11.2 1.2 3.8 2.4 7.4 4 11 1.4 3.6 3.2 7 5 10.4 1.8 3.4 3.8 6.8 6 10s4.4 6.4 7 9.4c2.4 3 5 5.8 7.8 8.6s5.6 5.4 8.6 7.8c3 2.4 6 4.8 9.4 7 3.2 2.2 6.6 4.2 10 6 3.4 1.8 7 3.4 10.4 5 3.6 1.4 7.2 2.8 11 4 3.8 1.2 7.4 2 11.2 2.8 3.8 0.8 7.6 1.4 11.4 1.8 3.8 0.4 7.8 0.6 11.6 0.6h506.2c3.8 0 7.8-0.2 11.6-0.6 3.8-0.4 7.6-1 11.4-1.8 3.8-0.8 7.6-1.6 11.2-2.8 3.8-1.2 7.4-2.4 11-4 3.6-1.4 7-3.2 10.4-5 3.4-1.8 6.8-3.8 10-6s6.4-4.4 9.4-7c3-2.4 5.8-5 8.6-7.8s5.4-5.6 7.8-8.6c2.4-3 4.8-6 7-9.4 2.2-3.2 4.2-6.6 6-10 1.8-3.4 3.4-7 5-10.4 1.4-3.6 2.8-7.2 4-11 1.2-3.8 2-7.4 2.8-11.2 0.8-3.8 1.4-7.6 1.8-11.4 0.4-3.8 0.6-7.8 0.6-11.6V326.4c0-9.8-1.2-19.4-3.6-29-2.4-9.6-6-18.6-10.6-27.2L468.4 603.4c-3.2 3.2-6.8 5.6-11 7.4s-8.4 2.4-13 2.4z" p-id="2091" fill="#f4ea2a"></path><path d="M917 73.2H680.8c-1.2 0-2.2 0-3.4 0.2-1.2 0.2-2.2 0.2-3.2 0.4s-2.2 0.4-3.2 0.8-2 0.6-3.2 1.2c-1 0.4-2 0.8-3 1.4-1 0.6-2 1-2.8 1.8-1 0.6-1.8 1.2-2.6 2s-1.6 1.4-2.4 2.2c-0.8 0.8-1.6 1.6-2.2 2.4-0.8 0.8-1.4 1.8-2 2.6-0.6 1-1.2 1.8-1.8 2.8-0.6 1-1 2-1.4 3-0.4 1-0.8 2-1.2 3.2-0.4 1-0.6 2.2-0.8 3.2-0.2 1-0.4 2.2-0.4 3.2s-0.2 2.2-0.2 3.4c0 1.2 0 2.2 0.2 3.4s0.2 2.2 0.4 3.2 0.4 2.2 0.8 3.2 0.6 2 1.2 3.2c0.4 1 0.8 2 1.4 3 0.6 1 1 2 1.8 2.8 0.6 1 1.2 1.8 2 2.6s1.4 1.6 2.2 2.4c0.8 0.8 1.6 1.6 2.4 2.2 0.8 0.8 1.8 1.4 2.6 2 1 0.6 1.8 1.2 2.8 1.8 1 0.6 2 1 3 1.4 1 0.4 2 0.8 3.2 1.2 1 0.4 2.2 0.6 3.2 0.8 1 0.2 2.2 0.4 3.2 0.4 1.2 0.2 2.2 0.2 3.4 0.2h154.8l-81.8 81.8c10 5.4 19.2 12.2 27.4 20.4s15 17.2 20.4 27.4l81.8-81.8v154.8c0 1.2 0 2.2 0.2 3.4 0.2 1.2 0.2 2.2 0.4 3.2s0.4 2.2 0.8 3.2 0.6 2 1.2 3.2c0.4 1 0.8 2 1.4 3 0.6 1 1 2 1.8 2.8 0.6 1 1.2 1.8 2 2.6s1.4 1.6 2.2 2.4c0.8 0.8 1.6 1.6 2.4 2.2 0.8 0.8 1.8 1.4 2.6 2 1 0.6 1.8 1.2 2.8 1.8 1 0.6 2 1 3 1.4 1 0.4 2 0.8 3.2 1.2s2.2 0.6 3.2 0.8c1 0.2 2.2 0.4 3.2 0.4 1.2 0.2 2.2 0.2 3.4 0.2s2.2 0 3.4-0.2c1-0.2 2.2-0.2 3.2-0.4s2.2-0.4 3.2-0.8 2-0.6 3.2-1.2c1-0.4 2-0.8 3-1.4s2-1 2.8-1.8c1-0.6 1.8-1.2 2.6-2s1.6-1.4 2.4-2.2c0.8-0.8 1.6-1.6 2.2-2.4 0.8-0.8 1.4-1.8 2-2.6 0.6-1 1.2-1.8 1.8-2.8 0.6-1 1-2 1.4-3 0.4-1 0.8-2 1.2-3.2 0.4-1 0.6-2.2 0.8-3.2 0.2-1 0.4-2.2 0.4-3.2s0.2-2.2 0.2-3.4V107c0-1.2 0-2.2-0.2-3.4s-0.2-2.2-0.4-3.2-0.4-2.2-0.8-3.2-0.6-2-1.2-3.2c-0.4-1-0.8-2-1.4-3-0.6-1-1-2-1.8-2.8-0.6-1-1.2-1.8-2-2.6s-1.4-1.6-2.2-2.4c-0.8-0.8-1.6-1.6-2.4-2.2-0.8-0.8-1.8-1.4-2.6-2-1-0.6-1.8-1.2-2.8-1.8-1-0.6-2-1-3-1.4-1-0.4-2-0.8-3.2-1.2-1-0.4-2.2-0.6-3.2-0.8-1-0.2-2.2-0.4-3.2-0.4-1.4 0-2.4-0.2-3.6-0.2z" p-id="2092" fill="#f4ea2a"></path></svg>