<?xml version="1.0" standalone="no"?><!DOCTYPE svg PUBLIC "-//W3C//DTD SVG 1.1//EN" "http://www.w3.org/Graphics/SVG/1.1/DTD/svg11.dtd"><svg t="1665456354407" class="icon" viewBox="0 0 1024 1024" version="1.1" xmlns="http://www.w3.org/2000/svg" p-id="9524" width="40" height="40" xmlns:xlink="http://www.w3.org/1999/xlink"><path d="M505.856 918.016c-177.664 0-322.56-144.896-322.56-322.56 0-220.16 225.28-423.936 293.888-480.768 16.384-13.824 40.448-13.824 56.832 0 69.12 57.344 293.888 260.608 293.888 480.768 0.512 178.176-143.872 322.56-322.048 322.56z m0-755.712c-57.344 48.64-267.776 240.128-267.776 433.664 0 147.968 120.32 267.776 267.776 267.776s267.776-120.32 267.776-267.776c0.512-194.048-210.432-385.536-267.776-433.664z" fill="#ffffff" p-id="9525"></path><path d="M453.632 800.768c-2.56 0-5.632-0.512-8.192-1.024-79.872-25.6-139.776-92.16-156.672-174.08-3.072-14.848 6.656-29.184 20.992-32.256 14.848-3.072 29.184 6.656 32.256 20.992 12.8 62.464 58.88 113.664 119.808 132.608 14.336 4.608 22.528 19.968 17.92 34.304-4.096 11.776-14.848 19.456-26.112 19.456z" fill="#ffffff" p-id="9526"></path></svg>